<?xml version="1.0" encoding="utf-8"?>
<!-- Generator: Adobe Illustrator 16.0.0, SVG Export Plug-In . SVG Version: 6.00 Build 0)  -->
<!DOCTYPE svg PUBLIC "-//W3C//DTD SVG 1.1//EN" "http://www.w3.org/Graphics/SVG/1.1/DTD/svg11.dtd">
<svg version="1.1" id="Calque_1" xmlns="http://www.w3.org/2000/svg" xmlns:xlink="http://www.w3.org/1999/xlink" x="0px" y="0px"
	 width="325.371px" height="136.669px" viewBox="0 0 325.371 136.669" enable-background="new 0 0 325.371 136.669"
	 xml:space="preserve">
<g>
	<rect x="175.219" y="6.813" fill="#FFFFFF" width="142.857" height="85.143"/>
	<path fill="#AC2AA1" d="M325.371,102.501c0,7.228-5.914,13.142-13.141,13.142h-44.68c0,6.981,5.255,12.895,5.255,15.77
		s-2.38,5.256-5.255,5.256h-42.052c-2.875,0-5.257-2.382-5.257-5.256c0-3.04,5.257-8.624,5.257-15.77h-44.681
		c-7.228,0-13.142-5.914-13.142-13.142V13.142C167.676,5.914,173.59,0,180.818,0H312.23c7.227,0,13.141,5.914,13.141,13.142V102.501
		z M314.858,13.142c0-1.397-1.231-2.629-2.628-2.629H180.818c-1.396,0-2.628,1.232-2.628,2.629v68.333
		c0,1.396,1.232,2.629,2.628,2.629H312.23c1.396,0,2.628-1.232,2.628-2.629V13.142z"/>
</g>
<g>
	<rect x="108.219" y="38.813" fill="#FFFFFF" width="102.286" height="69.143"/>
	<path fill="#9623A1" d="M238.496,120.9v7.885c0,4.353-5.914,7.884-13.142,7.884H93.943c-7.228,0-13.142-3.532-13.142-7.884V120.9
		h13.142h131.411H238.496z M101.828,102.501v-57.82c0-7.228,5.914-13.142,13.142-13.142h89.359c7.228,0,13.142,5.914,13.142,13.142
		v57.82c0,7.228-5.914,13.142-13.142,13.142h-89.359C107.741,115.644,101.828,109.729,101.828,102.501z M112.34,102.501
		c0,1.397,1.232,2.629,2.629,2.629h89.359c1.398,0,2.629-1.232,2.629-2.629v-57.82c0-1.397-1.231-2.629-2.629-2.629h-89.359
		c-1.396,0-2.629,1.232-2.629,2.629V102.501z M167.534,127.471c0-0.739-0.575-1.314-1.314-1.314h-13.141
		c-0.738,0-1.314,0.575-1.314,1.314c0,0.74,0.576,1.314,1.314,1.314h13.141C166.959,128.785,167.534,128.21,167.534,127.471z"/>
</g>
<g>
	<rect x="30.504" y="49.098" fill="#FFFFFF" width="107.619" height="80.407"/>
	<path fill="#801CA1" d="M126.433,42.052c7.228,0,13.142,5.914,13.142,13.142v68.333c0,7.229-5.914,13.142-13.142,13.142H37.074
		c-7.229,0-13.142-5.914-13.142-13.142V55.194c0-7.229,5.914-13.142,13.142-13.142H126.433z M37.074,52.565
		c-1.397,0-2.629,1.23-2.629,2.629v68.333c0,1.396,1.232,2.629,2.629,2.629h78.846c1.397,0,2.629-1.233,2.629-2.629V55.194
		c0-1.398-1.232-2.629-2.629-2.629H37.074z M123.805,89.359c0,2.875,2.382,5.258,5.257,5.258s5.256-2.383,5.256-5.258
		s-2.382-5.255-5.256-5.255S123.805,86.485,123.805,89.359z"/>
</g>
<g>
	<rect x="4.309" y="58.966" fill="#FFFFFF" width="38.209" height="76.996"/>
	<path fill="#6B15A1" d="M47.145,128.812c0,4.297-3.561,7.857-7.857,7.857H7.857c-4.297,0-7.857-3.561-7.857-7.857V65.953
		c0-4.297,3.561-7.857,7.857-7.857h31.43c4.297,0,7.857,3.561,7.857,7.857V128.812z M41.252,75.775c0-1.044-0.92-1.965-1.965-1.965
		H7.857c-1.043,0-1.965,0.921-1.965,1.965v43.215c0,1.044,0.922,1.965,1.965,1.965h31.43c1.045,0,1.965-0.921,1.965-1.965V75.775z
		 M28.484,65.953h-9.822c-0.553,0-0.982,0.43-0.982,0.982s0.43,0.982,0.982,0.982h9.822c0.551,0,0.98-0.43,0.98-0.982
		S29.035,65.953,28.484,65.953z M23.572,123.902c-2.701,0-4.91,2.209-4.91,4.91s2.209,4.91,4.91,4.91s4.912-2.209,4.912-4.91
		S26.273,123.902,23.572,123.902z"/>
</g>
<g>
</g>
<g>
</g>
<g>
</g>
<g>
</g>
<g>
</g>
<g>
</g>
<g>
</g>
<g>
</g>
<g>
</g>
<g>
</g>
<g>
</g>
</svg>
