<?xml version="1.0" encoding="utf-8"?>
<!-- Generator: Adobe Illustrator 16.0.0, SVG Export Plug-In . SVG Version: 6.00 Build 0)  -->
<!DOCTYPE svg PUBLIC "-//W3C//DTD SVG 1.1//EN" "http://www.w3.org/Graphics/SVG/1.1/DTD/svg11.dtd">
<svg version="1.1" id="Calque_1" xmlns="http://www.w3.org/2000/svg" xmlns:xlink="http://www.w3.org/1999/xlink" x="0px" y="0px"
	 width="325.371px" height="136.668px" viewBox="0 0 325.371 136.668" enable-background="new 0 0 325.371 136.668"
	 xml:space="preserve">
<g>
	<rect x="175.219" y="6.813" fill="#FFFFFF" width="142.857" height="85.143"/>
	<path fill="#AC2AA1" d="M325.371,102.5c0,7.229-5.914,13.143-13.141,13.143H267.55c0,6.98,5.255,12.895,5.255,15.77
		s-2.38,5.256-5.255,5.256h-42.052c-2.875,0-5.257-2.381-5.257-5.256c0-3.039,5.257-8.623,5.257-15.77h-44.682
		c-7.228,0-13.142-5.914-13.142-13.143V13.142C167.676,5.914,173.59,0,180.818,0H312.23c7.227,0,13.141,5.914,13.141,13.142V102.5z
		 M314.858,13.142c0-1.397-1.231-2.629-2.628-2.629H180.818c-1.396,0-2.629,1.232-2.629,2.629v68.333
		c0,1.396,1.232,2.629,2.629,2.629H312.23c1.396,0,2.628-1.232,2.628-2.629V13.142z"/>
</g>
<g>
	<rect x="108.219" y="38.813" fill="#FFFFFF" width="102.286" height="69.143"/>
	<path fill="#9623A1" d="M238.496,120.9v7.886c0,4.353-5.914,7.883-13.143,7.883H93.943c-7.228,0-13.142-3.531-13.142-7.883V120.9
		h13.142h131.411H238.496z M101.828,102.5V44.681c0-7.228,5.914-13.142,13.142-13.142h89.359c7.228,0,13.142,5.914,13.142,13.142
		V102.5c0,7.229-5.914,13.143-13.142,13.143H114.97C107.741,115.644,101.828,109.729,101.828,102.5z M112.34,102.5
		c0,1.397,1.232,2.629,2.629,2.629h89.359c1.398,0,2.629-1.231,2.629-2.629V44.681c0-1.397-1.23-2.629-2.629-2.629h-89.359
		c-1.396,0-2.629,1.232-2.629,2.629V102.5z M167.534,127.471c0-0.739-0.575-1.314-1.313-1.314h-13.142
		c-0.738,0-1.314,0.575-1.314,1.314c0,0.74,0.576,1.314,1.314,1.314h13.142C166.959,128.786,167.534,128.209,167.534,127.471z"/>
</g>
<g>
	<rect x="30.504" y="49.098" fill="#FFFFFF" width="107.619" height="80.406"/>
	<path fill="#801CA1" d="M126.433,42.052c7.228,0,13.142,5.914,13.142,13.142v68.333c0,7.229-5.914,13.142-13.142,13.142H37.074
		c-7.229,0-13.142-5.914-13.142-13.142V55.194c0-7.229,5.914-13.142,13.142-13.142H126.433z M37.074,52.565
		c-1.397,0-2.629,1.23-2.629,2.629v68.333c0,1.396,1.232,2.63,2.629,2.63h78.846c1.397,0,2.629-1.234,2.629-2.63V55.194
		c0-1.398-1.232-2.629-2.629-2.629H37.074z M123.805,89.359c0,2.875,2.382,5.259,5.257,5.259s5.256-2.384,5.256-5.259
		s-2.382-5.255-5.256-5.255S123.805,86.485,123.805,89.359z"/>
</g>
<g>
	<rect x="4.309" y="58.966" fill="#FFFFFF" width="38.209" height="76.996"/>
	<path fill="#6B15A1" d="M47.145,128.812c0,4.297-3.561,7.856-7.857,7.856H7.857c-4.297,0-7.857-3.561-7.857-7.856V65.953
		c0-4.297,3.561-7.857,7.857-7.857h31.43c4.297,0,7.857,3.561,7.857,7.857L47.145,128.812L47.145,128.812z M41.252,75.775
		c0-1.044-0.92-1.965-1.965-1.965H7.857c-1.043,0-1.965,0.921-1.965,1.965v43.216c0,1.043,0.922,1.965,1.965,1.965h31.43
		c1.045,0,1.965-0.922,1.965-1.965V75.775z M28.484,65.953h-9.822c-0.553,0-0.982,0.43-0.982,0.982c0,0.552,0.43,0.982,0.982,0.982
		h9.822c0.551,0,0.98-0.43,0.98-0.982C29.464,66.383,29.035,65.953,28.484,65.953z M23.572,123.902c-2.701,0-4.91,2.209-4.91,4.91
		s2.209,4.91,4.91,4.91c2.701,0,4.912-2.209,4.912-4.91S26.273,123.902,23.572,123.902z"/>
</g>
<g id="Recharger">
	<path fill="#AC2AA1" d="M284.396,55.739c-7.721,0-14.001-6.282-14.001-14.002s6.28-14.002,14.001-14.002
		c3.312,0,6.35,1.164,8.747,3.096l-6.941,6.003l18.283,2.699l-0.035-18.481l-6.421,5.553c-3.61-3.255-8.388-5.241-13.633-5.241
		c-11.251,0-20.372,9.122-20.372,20.373c0,11.251,9.121,20.373,20.372,20.373c8.826,0,16.339-5.612,19.169-13.46l-6.511-0.963
		C294.812,52.436,289.989,55.739,284.396,55.739z"/>
	<path fill="#9623A1" d="M183.834,76.51c-6.111,0-11.084-4.974-11.084-11.084c0-6.112,4.973-11.084,11.084-11.084
		c2.62,0,5.025,0.922,6.923,2.451l-5.494,4.752l14.473,2.137l-0.028-14.629l-5.082,4.396c-2.857-2.577-6.641-4.149-10.791-4.149
		c-8.907,0-16.127,7.221-16.127,16.127c0,8.907,7.22,16.127,16.127,16.127c6.985,0,12.934-4.442,15.174-10.656l-5.155-0.761
		C192.078,73.895,188.26,76.51,183.834,76.51z"/>
	<path fill="#801CA1" d="M98.729,81.582c-4.848,0-8.792-3.944-8.792-8.793c0-4.847,3.944-8.791,8.792-8.791
		c2.078,0,3.986,0.731,5.491,1.944l-4.358,3.77l11.479,1.694l-0.022-11.604l-4.031,3.487c-2.267-2.044-5.267-3.291-8.559-3.291
		c-7.065,0-12.792,5.728-12.792,12.791c0,7.066,5.728,12.794,12.792,12.794c5.541,0,10.258-3.524,12.036-8.452l-4.089-0.605
		C105.268,79.508,102.239,81.582,98.729,81.582z"/>
	<path fill="#6B15A1" d="M28.208,92.861c-3.222,0-5.843-2.622-5.843-5.844s2.621-5.844,5.843-5.844c1.381,0,2.65,0.486,3.65,1.293
		l-2.896,2.505l7.63,1.126l-0.015-7.712l-2.68,2.317c-1.507-1.359-3.5-2.188-5.689-2.188c-4.696,0-8.502,3.807-8.502,8.502
		c0,4.696,3.806,8.502,8.502,8.502c3.683,0,6.819-2.342,8-5.618l-2.718-0.4C32.555,91.483,30.542,92.861,28.208,92.861z"/>
</g>
</svg>
